<mxfile host="app.diagrams.net" modified="2021-11-07T05:43:26.148Z" agent="5.0 (Windows NT 10.0; Win64; x64) AppleWebKit/537.36 (KHTML, like Gecko) Chrome/95.0.4638.69 Safari/537.36" etag="O7Git1fX2vLaZ5laK2o7" version="15.5.2" type="github">
  <diagram id="prtHgNgQTEPvFCAcTncT" name="Page-1">
    <mxGraphModel dx="1038" dy="579" grid="1" gridSize="10" guides="1" tooltips="1" connect="1" arrows="1" fold="1" page="1" pageScale="1" pageWidth="827" pageHeight="1169" math="0" shadow="0">
      <root>
        <mxCell id="0" />
        <mxCell id="1" parent="0" />
        <mxCell id="MF120qcCZqf6xXrIqE2C-2" value="pc-client" style="rounded=1;whiteSpace=wrap;html=1;fillColor=#d5e8d4;strokeColor=#82b366;" vertex="1" parent="1">
          <mxGeometry x="110" y="200" width="120" height="60" as="geometry" />
        </mxCell>
        <mxCell id="MF120qcCZqf6xXrIqE2C-11" style="edgeStyle=orthogonalEdgeStyle;rounded=0;orthogonalLoop=1;jettySize=auto;html=1;exitX=0.5;exitY=1;exitDx=0;exitDy=0;entryX=0.5;entryY=0;entryDx=0;entryDy=0;fontColor=#000000;" edge="1" parent="1" source="MF120qcCZqf6xXrIqE2C-5" target="MF120qcCZqf6xXrIqE2C-10">
          <mxGeometry relative="1" as="geometry" />
        </mxCell>
        <mxCell id="MF120qcCZqf6xXrIqE2C-5" value="enterprise_training_admin_fe" style="rounded=1;whiteSpace=wrap;html=1;fillColor=#d5e8d4;strokeColor=#82b366;" vertex="1" parent="1">
          <mxGeometry x="240" y="200" width="160" height="60" as="geometry" />
        </mxCell>
        <mxCell id="MF120qcCZqf6xXrIqE2C-15" style="edgeStyle=orthogonalEdgeStyle;rounded=0;orthogonalLoop=1;jettySize=auto;html=1;exitX=0.5;exitY=1;exitDx=0;exitDy=0;entryX=0.5;entryY=0;entryDx=0;entryDy=0;fontColor=#000000;" edge="1" parent="1" source="MF120qcCZqf6xXrIqE2C-6" target="MF120qcCZqf6xXrIqE2C-10">
          <mxGeometry relative="1" as="geometry" />
        </mxCell>
        <mxCell id="MF120qcCZqf6xXrIqE2C-6" value="xiaoe-login" style="rounded=1;whiteSpace=wrap;html=1;fillColor=#d5e8d4;strokeColor=#82b366;" vertex="1" parent="1">
          <mxGeometry x="410" y="200" width="110" height="60" as="geometry" />
        </mxCell>
        <mxCell id="MF120qcCZqf6xXrIqE2C-19" style="edgeStyle=orthogonalEdgeStyle;rounded=0;orthogonalLoop=1;jettySize=auto;html=1;exitX=0.5;exitY=1;exitDx=0;exitDy=0;fontColor=#000000;" edge="1" parent="1" source="MF120qcCZqf6xXrIqE2C-7" target="MF120qcCZqf6xXrIqE2C-18">
          <mxGeometry relative="1" as="geometry" />
        </mxCell>
        <mxCell id="MF120qcCZqf6xXrIqE2C-7" value="training_xiaoe_admin_fe&amp;nbsp;" style="rounded=1;whiteSpace=wrap;html=1;fillColor=#d5e8d4;strokeColor=#82b366;" vertex="1" parent="1">
          <mxGeometry x="530" y="200" width="160" height="60" as="geometry" />
        </mxCell>
        <mxCell id="MF120qcCZqf6xXrIqE2C-20" style="edgeStyle=orthogonalEdgeStyle;rounded=0;orthogonalLoop=1;jettySize=auto;html=1;exitX=0.5;exitY=1;exitDx=0;exitDy=0;fontColor=#000000;" edge="1" parent="1" source="MF120qcCZqf6xXrIqE2C-8">
          <mxGeometry relative="1" as="geometry">
            <mxPoint x="810" y="360" as="targetPoint" />
          </mxGeometry>
        </mxCell>
        <mxCell id="MF120qcCZqf6xXrIqE2C-8" value="enterprise_mobile_h5_fe" style="rounded=1;whiteSpace=wrap;html=1;fillColor=#d5e8d4;strokeColor=#82b366;" vertex="1" parent="1">
          <mxGeometry x="730" y="200" width="160" height="60" as="geometry" />
        </mxCell>
        <mxCell id="MF120qcCZqf6xXrIqE2C-9" value="training_xiaoe_h5_fe" style="rounded=1;whiteSpace=wrap;html=1;fillColor=#d5e8d4;strokeColor=#82b366;" vertex="1" parent="1">
          <mxGeometry x="900" y="200" width="160" height="60" as="geometry" />
        </mxCell>
        <mxCell id="MF120qcCZqf6xXrIqE2C-17" style="edgeStyle=orthogonalEdgeStyle;rounded=0;orthogonalLoop=1;jettySize=auto;html=1;exitX=0.5;exitY=1;exitDx=0;exitDy=0;entryX=0.5;entryY=0;entryDx=0;entryDy=0;fontColor=#000000;" edge="1" parent="1" source="MF120qcCZqf6xXrIqE2C-10" target="MF120qcCZqf6xXrIqE2C-16">
          <mxGeometry relative="1" as="geometry" />
        </mxCell>
        <mxCell id="MF120qcCZqf6xXrIqE2C-10" value="xiaoe_admin" style="rounded=1;whiteSpace=wrap;html=1;fillColor=#d5e8d4;strokeColor=#82b366;" vertex="1" parent="1">
          <mxGeometry x="340" y="360" width="110" height="60" as="geometry" />
        </mxCell>
        <mxCell id="MF120qcCZqf6xXrIqE2C-16" value="market_course_server" style="rounded=1;whiteSpace=wrap;html=1;" vertex="1" parent="1">
          <mxGeometry x="315" y="550" width="160" height="60" as="geometry" />
        </mxCell>
        <mxCell id="MF120qcCZqf6xXrIqE2C-28" style="edgeStyle=orthogonalEdgeStyle;rounded=0;orthogonalLoop=1;jettySize=auto;html=1;exitX=0.5;exitY=1;exitDx=0;exitDy=0;fontColor=#000000;" edge="1" parent="1" source="MF120qcCZqf6xXrIqE2C-18" target="MF120qcCZqf6xXrIqE2C-27">
          <mxGeometry relative="1" as="geometry" />
        </mxCell>
        <mxCell id="MF120qcCZqf6xXrIqE2C-18" value="training_xiaoe_admin" style="rounded=1;whiteSpace=wrap;html=1;fillColor=#d5e8d4;strokeColor=#82b366;" vertex="1" parent="1">
          <mxGeometry x="530" y="360" width="160" height="60" as="geometry" />
        </mxCell>
        <mxCell id="MF120qcCZqf6xXrIqE2C-26" style="edgeStyle=orthogonalEdgeStyle;rounded=0;orthogonalLoop=1;jettySize=auto;html=1;exitX=0.5;exitY=1;exitDx=0;exitDy=0;entryX=0.5;entryY=0;entryDx=0;entryDy=0;fontColor=#000000;" edge="1" parent="1" source="MF120qcCZqf6xXrIqE2C-21" target="MF120qcCZqf6xXrIqE2C-23">
          <mxGeometry relative="1" as="geometry" />
        </mxCell>
        <mxCell id="MF120qcCZqf6xXrIqE2C-21" value="h5_wechat" style="rounded=1;whiteSpace=wrap;html=1;" vertex="1" parent="1">
          <mxGeometry x="755" y="360" width="110" height="60" as="geometry" />
        </mxCell>
        <mxCell id="MF120qcCZqf6xXrIqE2C-30" style="edgeStyle=orthogonalEdgeStyle;rounded=0;orthogonalLoop=1;jettySize=auto;html=1;exitX=0.5;exitY=1;exitDx=0;exitDy=0;entryX=0.5;entryY=0;entryDx=0;entryDy=0;fontColor=#000000;" edge="1" parent="1" source="MF120qcCZqf6xXrIqE2C-23" target="MF120qcCZqf6xXrIqE2C-27">
          <mxGeometry relative="1" as="geometry" />
        </mxCell>
        <mxCell id="MF120qcCZqf6xXrIqE2C-23" value="buz_server" style="rounded=1;whiteSpace=wrap;html=1;" vertex="1" parent="1">
          <mxGeometry x="755" y="450" width="110" height="60" as="geometry" />
        </mxCell>
        <mxCell id="MF120qcCZqf6xXrIqE2C-27" value="training_api_server" style="rounded=1;whiteSpace=wrap;html=1;fillColor=#d5e8d4;strokeColor=#82b366;" vertex="1" parent="1">
          <mxGeometry x="530" y="550" width="160" height="60" as="geometry" />
        </mxCell>
      </root>
    </mxGraphModel>
  </diagram>
</mxfile>
